REM GENRE "Hard Rock"
REM DATE 1990
REM DISCID 840A130A
REM COMMENT "ExactAudioCopy v0.95b4"
PERFORMER "Doro"
TITLE "Doro"
FILE "Doro - Doro.ape" WAVE
  TRACK 01 AUDIO
    TITLE "Unholy Love"
    PERFORMER "Doro"
    INDEX 01 00:00:00
  TRACK 02 AUDIO
    TITLE "I Had Too Much to Dream"
    PERFORMER "Doro"
    INDEX 01 04:31:07
  TRACK 03 AUDIO
    TITLE "Rock On"
    PERFORMER "Doro"
    INDEX 01 08:38:39
  TRACK 04 AUDIO
    TITLE "Only You"
    PERFORMER "Doro"
    INDEX 01 11:48:03
  TRACK 05 AUDIO
    TITLE "I'll Be Holding On"
    PERFORMER "Doro"
    INDEX 01 16:05:70
  TRACK 06 AUDIO
    TITLE "Something Wicked This Way Comes"
    PERFORMER "Doro"
    INDEX 01 21:24:11
  TRACK 07 AUDIO
    TITLE "Rare Diamond"
    PERFORMER "Doro"
    INDEX 01 26:35:27
  TRACK 08 AUDIO
    TITLE "Broken"
    PERFORMER "Doro"
    INDEX 01 30:06:34
  TRACK 09 AUDIO
    TITLE "Alive"
    PERFORMER "Doro"
    INDEX 01 34:48:09
  TRACK 10 AUDIO
    TITLE "Mirage"
    PERFORMER "Doro"
    INDEX 01 39:03:14
